<svg xmlns="http://www.w3.org/2000/svg" width="32" height="32.03" viewBox="0 0 32 32.03">
  <defs>
    <style>
      .cls-1 {
        fill: #00b9e7;
        fill-rule: evenodd;
      }
    </style>
  </defs>
  <path id="Right_arrow" data-name="Right arrow" class="cls-1" d="M491.363,3048.53l14.02,14.07a1.991,1.991,0,0,1,0,2.81,1.97,1.97,0,0,1-2.8,0l-14.02-14.07A1.984,1.984,0,0,1,491.363,3048.53Zm-2.8,28.07,14.02-14.07a1.984,1.984,0,0,1,2.8,2.81l-14.02,14.07a1.97,1.97,0,0,1-2.8,0A1.991,1.991,0,0,1,488.561,3076.6ZM476,3062h28a2,2,0,0,1,0,4H476A2,2,0,0,1,476,3062Z" transform="translate(-474 -3047.97)"/>
</svg>
